<svg>
    <symbol id="happy" xmlns="http://www.w3.org/2000/svg" width="70" height="70" viewBox="0 0 70 70" fill="none">
        <path d="M68.0032 41.6795C67.4914 44.2772 66.6776 46.7635 65.595 49.1049C64.4689 49.4617 63.1645 49.562 61.8165 49.3391C58.1931 48.737 55.6165 45.9942 56.0847 43.2292C56.5419 40.4642 59.8543 38.7137 63.4889 39.3158C65.3731 39.628 66.9674 40.5199 68.0032 41.6795Z" fill="#FF9A61"/>
        <path d="M13.2731 43.2292C13.7413 45.9942 11.167 48.737 7.5435 49.3391C6.29368 49.5509 5.08957 49.4728 4.02037 49.183C2.8943 46.7636 2.0581 44.1881 1.54413 41.4899C2.56985 40.4196 4.09841 39.6168 5.87113 39.3158C9.50576 38.7137 12.8148 40.4642 13.2731 43.2292Z" fill="#FF9A61"/>
        <path d="M68.6743 35.001C68.6743 37.2866 68.4502 39.5276 68.0031 41.6795C66.9662 40.5199 65.373 39.628 63.4888 39.3158C59.8542 38.7137 56.5429 40.4642 56.0846 43.2292C55.6164 45.9942 58.193 48.737 61.8165 49.339C63.1644 49.562 64.4688 49.4617 65.5949 49.1049C60.2555 60.7783 48.4709 68.8838 34.7909 68.8838C21.1332 68.8838 9.36967 60.8117 4.01918 49.183C5.08839 49.4728 6.2925 49.5509 7.54232 49.339C11.1658 48.737 13.7401 45.9942 13.2719 43.2292C12.8148 40.4642 9.50457 38.7137 5.86995 39.3158C4.09723 39.6168 2.5687 40.4196 1.54298 41.4899C1.12043 39.3938 0.907471 37.2197 0.907471 35.001C0.907471 16.2813 16.0703 1.11816 34.7909 1.11816C53.5092 1.11816 68.6743 16.2813 68.6743 35.001Z" fill="#FCE7F6"/>
        <path d="M35.0006 70C15.7014 70 0 54.2984 0 35C0 15.7016 15.7014 0 35.0006 0C54.2998 0 70 15.7016 70 35C70 54.2984 54.2986 70 35.0006 70ZM35.0006 2.22987C16.9311 2.22987 2.22983 16.9303 2.22983 35C2.22983 53.0697 16.9311 67.7701 35.0006 67.7701C53.07 67.7701 67.7702 53.0697 67.7702 35C67.7702 16.9303 53.07 2.22987 35.0006 2.22987Z" fill="#FF9A61"/>
        <path d="M44.174 34.7393C44.4439 35.8352 44.5877 36.9792 44.5877 38.1811C44.5877 38.4509 44.5788 38.7196 44.5676 38.9883H44.5587C31.5499 37.4017 25.2327 38.9883 25.2327 38.9883H25.2238C25.2127 38.7196 25.2037 38.4509 25.2037 38.1811C25.2037 36.9792 25.3476 35.8352 25.6174 34.7393H44.174Z" fill="white"/>
        <path d="M34.898 44.2876C37.7042 44.2876 40.118 45.4505 41.243 47.153C39.5405 48.9514 37.3185 50.0373 34.898 50.0373C32.4652 50.0373 30.2533 48.9514 28.5508 47.153C29.6757 45.4505 32.0906 44.2876 34.898 44.2876Z" fill="#FF7C5F"/>
        <path d="M44.5598 38.9893H44.5687C44.3881 42.2483 43.136 45.1438 41.244 47.1529C40.1179 45.4515 37.7053 44.2875 34.899 44.2875C32.0917 44.2875 29.6767 45.4504 28.5518 47.1529C26.6598 45.1438 25.41 42.2494 25.2271 38.9893H25.236C25.2338 38.9893 31.5509 37.4028 44.5598 38.9893Z" fill="black"/>
        <path d="M20.1253 33.7936C19.6637 33.7936 19.2891 33.419 19.2891 32.9574C19.2891 31.5025 18.2054 30.3184 16.8742 30.3184C15.543 30.3184 14.4593 31.5025 14.4593 32.9574C14.4593 33.419 14.0847 33.7936 13.6231 33.7936C13.1615 33.7936 12.7869 33.419 12.7869 32.9574C12.7869 30.5804 14.6209 28.646 16.8742 28.646C19.1286 28.646 20.9615 30.5804 20.9615 32.9574C20.9615 33.419 20.5869 33.7936 20.1253 33.7936Z" fill="black"/>
        <path d="M55.6376 33.7936C55.1761 33.7936 54.8014 33.419 54.8014 32.9574C54.8014 31.5025 53.7178 30.3184 52.3866 30.3184C51.0553 30.3184 49.9716 31.5025 49.9716 32.9574C49.9716 33.419 49.597 33.7936 49.1354 33.7936C48.6739 33.7936 48.2993 33.419 48.2993 32.9574C48.2993 30.5804 50.1333 28.646 52.3866 28.646C54.6409 28.646 56.4738 30.5804 56.4738 32.9574C56.4738 33.419 56.0992 33.7936 55.6376 33.7936Z" fill="black"/>
    </symbol>
    <symbol id="calm" xmlns="http://www.w3.org/2000/svg" width="70" height="70" viewBox="0 0 70 70" fill="none">
        <path d="M68.0054 41.6795C67.4914 44.2772 66.6786 46.7636 65.5972 49.1049C64.4711 49.4617 63.1667 49.562 61.8165 49.339C58.193 48.737 55.6176 45.9942 56.0859 43.2292C56.543 40.4642 59.8543 38.7137 63.4889 39.3158C65.3731 39.628 66.9674 40.5199 68.0054 41.6795Z" fill="#FF9A61"/>
        <path d="M13.2742 43.2292C13.7424 45.9942 11.1659 48.737 7.54238 49.339C6.29368 49.5509 5.08956 49.4728 4.01924 49.183C2.89318 46.7635 2.05699 44.1881 1.54413 41.4899C2.56985 40.4196 4.09729 39.6168 5.87001 39.3158C9.50463 38.7137 12.817 40.4642 13.2742 43.2292Z" fill="#FF9A61"/>
        <path d="M68.6733 35.001C68.6733 37.2866 68.4503 39.5276 68.0043 41.6795C66.9664 40.5199 65.3731 39.628 63.4878 39.3158C59.8532 38.7137 56.543 40.4642 56.0848 43.2292C55.6165 45.9942 58.1919 48.737 61.8154 49.339C63.1656 49.562 64.4701 49.4617 65.5961 49.1049C60.2557 60.7783 48.471 68.8839 34.7899 68.8839C21.1321 68.8839 9.37089 60.8117 4.01818 49.183C5.0885 49.4728 6.29262 49.5509 7.54132 49.339C11.1648 48.737 13.7414 45.9942 13.2731 43.2292C12.816 40.4642 9.50357 38.7137 5.86895 39.3158C4.09623 39.6168 2.56879 40.4196 1.54307 41.4899C1.1194 39.3938 0.907593 37.2197 0.907593 35.001C0.907593 16.2813 16.0715 1.11816 34.7899 1.11816C53.5115 1.11816 68.6733 16.2813 68.6733 35.001Z" fill="#FCE7F6"/>
        <path d="M34.9994 70C15.7014 70 0 54.2984 0 35C0 15.7016 15.7014 0 34.9994 0C54.2998 0 70 15.7005 70 35C70 54.2995 54.2998 70 34.9994 70ZM34.9994 2.22987C16.93 2.22987 2.22983 16.9303 2.22983 35C2.22983 53.0697 16.93 67.7701 34.9994 67.7701C53.0689 67.7701 67.7702 53.0697 67.7702 35C67.7702 16.9303 53.0689 2.22987 34.9994 2.22987Z" fill="#FF9A61"/>
        <path d="M16.7237 29.4824C16.7237 30.9296 15.5497 32.1025 14.1025 32.1025C12.6554 32.1025 11.4825 30.9296 11.4825 29.4824C11.4825 28.0363 12.6554 26.8623 14.1025 26.8623C15.5497 26.8623 16.7237 28.0352 16.7237 29.4824Z" fill="black"/>
        <path d="M58.309 29.4824C58.309 30.9296 57.1361 32.1025 55.6878 32.1025C54.2418 32.1025 53.0678 30.9296 53.0678 29.4824C53.0678 28.0363 54.2418 26.8623 55.6878 26.8623C57.1361 26.8623 58.309 28.0352 58.309 29.4824Z" fill="black"/>
        <path d="M34.8958 45.6028C31.822 45.6028 29.3212 42.3695 29.3212 38.3948C29.3212 37.9332 29.6958 37.5586 30.1574 37.5586C30.619 37.5586 30.9936 37.9332 30.9936 38.3948C30.9936 41.4475 32.744 43.9304 34.8958 43.9304C37.0487 43.9304 38.7991 41.4464 38.7991 38.3948C38.7991 37.9332 39.1737 37.5586 39.6353 37.5586C40.0969 37.5586 40.4715 37.9332 40.4715 38.3948C40.4715 42.3695 37.9696 45.6028 34.8958 45.6028Z" fill="black"/>
    </symbol>
    <symbol id="sad" xmlns="http://www.w3.org/2000/svg" width="70" height="70" viewBox="0 0 70 70" fill="none">
        <path d="M68.0049 41.679C67.4909 44.2768 66.6781 46.7631 65.5966 49.1044C64.4705 49.4612 63.1661 49.5616 61.8159 49.3386C58.1924 48.7365 55.618 45.9938 56.0851 43.2287C56.5422 40.4637 59.8536 38.7132 63.4883 39.3153C65.3736 39.6275 66.968 40.5194 68.0049 41.679Z" fill="#FF9A61"/>
        <path d="M13.2728 43.2287C13.7411 45.9938 11.1645 48.7365 7.54092 49.3386C6.29219 49.5504 5.08809 49.4724 4.01776 49.1825C2.89167 46.7631 2.05547 44.1876 1.5426 41.4894C2.56834 40.4191 4.09577 39.6163 5.86852 39.3153C9.5032 38.7132 12.8157 40.4637 13.2728 43.2287Z" fill="#FF9A61"/>
        <path d="M68.6738 35.001C68.6738 37.2866 68.4508 39.5276 68.0048 41.6795C66.9668 40.5199 65.3736 39.628 63.4882 39.3158C59.8535 38.7137 56.5433 40.4642 56.085 43.2292C55.6168 45.9942 58.1923 48.737 61.8158 49.339C63.166 49.562 64.4705 49.4617 65.5965 49.1049C60.256 60.7783 48.4712 68.8838 34.7898 68.8838C21.1319 68.8838 9.37045 60.8117 4.01766 49.183C5.08799 49.4728 6.29209 49.5509 7.54082 49.339C11.1644 48.737 13.741 45.9942 13.2727 43.2292C12.8156 40.4642 9.5031 38.7137 5.86842 39.3158C4.09567 39.6168 2.56824 40.4196 1.5425 41.4899C1.11883 39.3938 0.906982 37.2197 0.906982 35.001C0.906982 16.2813 16.0701 1.11816 34.7898 1.11816C53.5107 1.11816 68.6738 16.2813 68.6738 35.001Z" fill="#FCE7F6"/>
        <path d="M34.9994 70C15.6999 70 -0.000549316 54.2995 -0.000549316 35C-0.000549316 15.7005 15.6999 0 34.9994 0C54.2989 0 70.0006 15.7016 70.0006 35C70.0006 54.2984 54.2978 70 34.9994 70ZM34.9994 2.22987C16.9297 2.22987 2.22932 16.9303 2.22932 35C2.22932 53.0697 16.9297 67.7701 34.9994 67.7701C53.0692 67.7701 67.7707 53.0697 67.7707 35C67.7696 16.9303 53.0692 2.22987 34.9994 2.22987Z" fill="#FF9A61"/>
        <path d="M16.7224 29.4819C16.7224 30.9291 15.5484 32.102 14.1012 32.102C12.654 32.102 11.4811 30.9291 11.4811 29.4819C11.4811 28.0358 12.654 26.8618 14.1012 26.8618C15.5484 26.8618 16.7224 28.0347 16.7224 29.4819Z" fill="black"/>
        <path d="M58.3092 29.4819C58.3092 30.9291 57.1363 32.102 55.688 32.102C54.242 32.102 53.0679 30.9291 53.0679 29.4819C53.0679 28.0358 54.242 26.8618 55.688 26.8618C57.1363 26.8618 58.3092 28.0347 58.3092 29.4819Z" fill="black"/>
        <path d="M40.1245 41.3567C39.663 41.3567 39.2883 40.9821 39.2883 40.5205C39.2883 38.2627 37.3171 36.4253 34.8955 36.4253C32.4728 36.4253 30.5027 38.2627 30.5027 40.5205C30.5027 40.9821 30.128 41.3567 29.6665 41.3567C29.2049 41.3567 28.8303 40.9821 28.8303 40.5205C28.8303 37.3396 31.5507 34.7529 34.8955 34.7529C38.2403 34.7529 40.9607 37.3407 40.9607 40.5205C40.9607 40.9821 40.5861 41.3567 40.1245 41.3567Z" fill="black"/>
    </symbol>
    <symbol id="anxious" xmlns="http://www.w3.org/2000/svg" width="70" height="70" viewBox="0 0 70 70" fill="none">
        <path d="M68.0038 41.679C67.4909 44.2768 66.677 46.7631 65.5955 49.1044C64.4695 49.4612 63.165 49.5615 61.8159 49.3386C58.1924 48.7365 55.6169 45.9938 56.084 43.2287C56.5412 40.4637 59.8536 38.7132 63.4883 39.3153C65.3725 39.6275 66.9669 40.5194 68.0038 41.679Z" fill="#FF9A61"/>
        <path d="M13.2717 43.2287C13.74 45.9938 11.1645 48.7365 7.54093 49.3386C6.29221 49.5504 5.08808 49.4723 4.01774 49.1825C2.89166 46.7631 2.05547 44.1876 1.5426 41.4894C2.56834 40.4191 4.09579 39.6163 5.86853 39.3153C9.50433 38.7132 12.8146 40.4637 13.2717 43.2287Z" fill="#FF9A61"/>
        <path d="M68.6738 35.001C68.6738 37.2866 68.4497 39.5276 68.0037 41.6795C66.9657 40.5199 65.3725 39.628 63.4882 39.3158C59.8535 38.7137 56.5422 40.4642 56.0839 43.2292C55.6157 45.9942 58.1923 48.737 61.8158 49.339C63.1649 49.562 64.4694 49.4617 65.5954 49.1049C60.2549 60.7783 48.4701 68.8838 34.7898 68.8838C21.1319 68.8838 9.36932 60.8117 4.01764 49.183C5.08798 49.4728 6.29211 49.5509 7.54083 49.339C11.1644 48.737 13.7399 45.9942 13.2716 43.2292C12.8145 40.4642 9.50312 38.7137 5.86843 39.3158C4.09569 39.6168 2.56824 40.4196 1.5425 41.4899C1.11883 39.3938 0.906982 37.2197 0.906982 35.001C0.906982 16.2813 16.0701 1.11816 34.7898 1.11816C53.5096 1.11816 68.6738 16.2813 68.6738 35.001Z" fill="#FCE7F6"/>
        <path d="M34.9994 70C15.6999 70 -0.000549316 54.2984 -0.000549316 35C-0.000549316 15.7016 15.6999 0 34.9994 0C54.299 0 70.0005 15.7005 70.0005 35C70.0005 54.2995 54.2978 70 34.9994 70ZM34.9994 2.22987C16.9297 2.22987 2.22932 16.9303 2.22932 35C2.22932 53.0697 16.9297 67.7701 34.9994 67.7701C53.0692 67.7701 67.7707 53.0697 67.7707 35C67.7707 16.9303 53.0692 2.22987 34.9994 2.22987Z" fill="#FF9A61"/>
        <path d="M15.1123 30.6021C16.0522 31.0001 16.7112 31.9299 16.7112 33.0148C16.7112 34.462 15.5382 35.6349 14.0911 35.6349C12.6963 35.6349 11.5657 34.5422 11.4855 33.1675L15.1123 30.6021Z" fill="black"/>
        <path d="M54.6779 30.6021C53.738 31.0001 53.0791 31.9299 53.0791 33.0148C53.0791 34.462 54.252 35.6349 55.6992 35.6349C57.094 35.6349 58.2245 34.5422 58.3048 33.1675L54.6779 30.6021Z" fill="black"/>
        <path d="M43.3972 43.1396C41.6913 43.1396 40.7782 42.4216 40.0457 41.8462C39.3812 41.3233 38.8561 40.9097 37.7278 40.9097C36.6006 40.9097 36.0754 41.3233 35.4109 41.8451C34.6784 42.4215 33.7664 43.1396 32.0594 43.1396C30.3536 43.1396 29.4416 42.4215 28.7091 41.8451C28.0446 41.3222 27.5205 40.9097 26.3945 40.9097C25.9329 40.9097 25.5583 40.5351 25.5583 40.0735C25.5583 39.6119 25.9329 39.2373 26.3945 39.2373C28.1003 39.2373 29.0112 39.9553 29.7437 40.5317C30.4082 41.0546 30.9322 41.4672 32.0594 41.4672C33.1866 41.4672 33.7118 41.0535 34.3763 40.5317C35.1088 39.9553 36.0208 39.2373 37.7278 39.2373C39.4347 39.2373 40.3478 39.9553 41.0804 40.5317C41.7449 41.0546 42.2689 41.4672 43.3972 41.4672C43.8588 41.4672 44.2334 41.8418 44.2334 42.3034C44.2334 42.765 43.8588 43.1396 43.3972 43.1396Z" fill="black"/>
    </symbol>
    <symbol id="blue" xmlns="http://www.w3.org/2000/svg" width="70" height="70" viewBox="0 0 70 70" fill="none">
        <path d="M68.0039 41.6801C67.4911 44.2779 66.6761 46.763 65.5957 49.1044C64.4696 49.4611 63.1652 49.5615 61.8162 49.3396C58.1927 48.7364 55.6161 45.9949 56.0844 43.2299C56.5415 40.4649 59.8539 38.7145 63.4885 39.3154C65.3727 39.6287 66.9671 40.5206 68.0039 41.6801Z" fill="#FF9A61"/>
        <path d="M13.2726 43.2285C13.7408 45.9935 11.1654 48.7351 7.54192 49.3383C6.2921 49.549 5.08798 49.4709 4.01878 49.1811C2.89271 46.7617 2.05652 44.1873 1.54254 41.4893C2.56826 40.4189 4.09683 39.6151 5.86954 39.314C9.50417 38.7142 12.8155 40.4646 13.2726 43.2285Z" fill="#FF9A61"/>
        <path d="M68.6738 35.0005C68.6738 37.2849 68.4497 39.5259 68.0037 41.6788C66.9657 40.5193 65.3725 39.6273 63.4883 39.3141C59.8537 38.7131 56.5424 40.4635 56.0841 43.2285C55.6159 45.9935 58.1924 48.7351 61.8159 49.3383C63.165 49.5601 64.4694 49.4598 65.5955 49.103C60.255 60.7773 48.4704 68.8816 34.7904 68.8816C21.1326 68.8816 9.37028 60.8096 4.01868 49.1811C5.08789 49.4709 6.292 49.549 7.54182 49.3383C11.1653 48.7351 13.7396 45.9935 13.2725 43.2285C12.8154 40.4635 9.50407 38.7131 5.86945 39.3141C4.09673 39.6162 2.56817 40.4189 1.54245 41.4893C1.11989 39.3921 0.906937 37.2191 0.906937 35.0005C0.906937 16.281 16.0709 1.11816 34.7904 1.11816C53.5098 1.11816 68.6738 16.281 68.6738 35.0005Z" fill="#FCE7F6"/>
        <path d="M35 70C15.7008 70 -0.000564575 54.2986 -0.000564575 34.9994C-0.000564575 15.7002 15.7008 0 35 0C54.2992 0 70.0006 15.7002 70.0006 34.9994C69.9994 54.2986 54.2981 70 35 70ZM35 2.22983C16.9306 2.22983 2.22927 16.93 2.22927 34.9994C2.22927 53.07 16.9306 67.7702 35 67.7702C53.0694 67.7702 67.7707 53.0689 67.7707 34.9994C67.7696 16.93 53.0694 2.22983 35 2.22983Z" fill="#FF9A61"/>
        <path d="M39.7228 39.3296H30.5492C30.0877 39.3296 29.713 38.955 29.713 38.4934C29.713 38.0318 30.0877 37.6572 30.5492 37.6572H39.7228C40.1843 37.6572 40.5589 38.0318 40.5589 38.4934C40.5589 38.955 40.1843 39.3296 39.7228 39.3296Z" fill="black"/>
        <path d="M20.7314 33.932C20.5173 33.932 20.3032 33.8506 20.1404 33.6867L12.2859 25.8332C11.9592 25.5065 11.9592 24.9769 12.2859 24.6503C12.6125 24.3236 13.1421 24.3236 13.4688 24.6503L21.3234 32.5038C21.65 32.8304 21.65 33.36 21.3234 33.6867C21.1595 33.8506 20.9454 33.932 20.7314 33.932Z" fill="black"/>
        <path d="M12.8768 33.932C12.6627 33.932 12.4486 33.8506 12.2859 33.6867C11.9592 33.36 11.9592 32.8304 12.2859 32.5038L20.1404 24.6503C20.4671 24.3236 20.9967 24.3236 21.3223 24.6503C21.6489 24.9769 21.6489 25.5065 21.3223 25.8332L13.4677 33.6867C13.3049 33.8506 13.0909 33.932 12.8768 33.932Z" fill="black"/>
        <path d="M56.4442 33.932C56.2302 33.932 56.0161 33.8506 55.8533 33.6867L47.9987 25.8332C47.6721 25.5065 47.6721 24.9769 47.9987 24.6503C48.3254 24.3236 48.855 24.3236 49.1817 24.6503L57.0362 32.5038C57.3629 32.8304 57.3629 33.36 57.0362 33.6867C56.8723 33.8506 56.6583 33.932 56.4442 33.932Z" fill="black"/>
        <path d="M48.5896 33.932C48.3756 33.932 48.1615 33.8506 47.9987 33.6867C47.6721 33.36 47.6721 32.8304 47.9987 32.5038L55.8533 24.6503C56.18 24.3236 56.7096 24.3236 57.0362 24.6503C57.3629 24.9769 57.3629 25.5065 57.0362 25.8332L49.1817 33.6867C49.0178 33.8506 48.8048 33.932 48.5896 33.932Z" fill="black"/>
    </symbol>
    <symbol id="irritated" xmlns="http://www.w3.org/2000/svg" width="70" height="71" viewBox="0 0 70 71" fill="none">
        <path d="M68.0043 41.7926C67.4904 44.3903 66.6776 46.8765 65.5961 49.2178C64.4701 49.5735 63.1656 49.6738 61.8154 49.452C58.192 48.8499 55.6176 46.1073 56.0848 43.3423C56.5419 40.5785 59.8532 38.827 63.4878 39.429C65.3731 39.7412 66.9664 40.6331 68.0043 41.7926Z" fill="#FF9A61"/>
        <path d="M13.2731 43.341C13.7414 46.106 11.1648 48.8497 7.54134 49.4507C6.29263 49.6614 5.08852 49.5834 4.01821 49.2935C2.89214 46.8742 2.05595 44.2998 1.54309 41.6018C2.56881 40.5315 4.09625 39.7276 5.86896 39.4277C9.50359 38.8268 12.816 40.5772 13.2731 43.341Z" fill="#FF9A61"/>
        <path d="M68.6732 35.1142C68.6732 37.3997 68.4503 39.6406 68.0043 41.7924C66.9663 40.6329 65.3731 39.741 63.4878 39.4288C59.8531 38.8268 56.543 40.5772 56.0847 43.3421C55.6165 46.1071 58.1919 48.8509 61.8154 49.4518C63.1656 49.6736 64.47 49.5733 65.5961 49.2176C60.2556 60.8906 48.471 68.9948 34.7898 68.9948C21.1321 68.9948 9.37086 60.9241 4.01815 49.2946C5.08847 49.5844 6.29257 49.6625 7.54128 49.4518C11.1648 48.8497 13.7413 46.1071 13.2731 43.3421C12.8159 40.5783 9.50353 38.8268 5.8689 39.4288C4.09619 39.7298 2.56876 40.5326 1.54303 41.6029C1.11937 39.5069 0.907532 37.3328 0.907532 35.1142C0.907532 16.395 16.0715 1.23242 34.7898 1.23242C53.5104 1.23242 68.6732 16.395 68.6732 35.1142Z" fill="#FCE7F6"/>
        <path d="M34.9995 70.1118C15.7003 70.1118 0 54.4107 0 35.1118C0 15.8129 15.7003 0.111816 34.9995 0.111816C54.2986 0.111816 70 15.8129 70 35.1118C69.9989 54.4107 54.2986 70.1118 34.9995 70.1118ZM34.9995 2.34274C16.9311 2.34274 2.22983 17.0426 2.22983 35.1129C2.22983 53.1821 16.93 67.8831 34.9995 67.8831C53.0689 67.8831 67.7702 53.1821 67.7702 35.1129C67.7691 17.0438 53.0689 2.34274 34.9995 2.34274Z" fill="#FF9A61"/>
        <path d="M34.9069 32.5923C43.8485 32.5923 49.3005 39.5493 48.0741 44.1984C41.4626 38.2002 29.0536 36.8178 21.8067 44.1984C20.7363 39.5381 26.5685 32.5923 34.9069 32.5923Z" fill="white"/>
        <path d="M48.0741 44.1983C47.8288 45.2006 47.2602 46.0937 46.346 46.7849C41.8751 50.1965 40.1247 45.1795 34.9403 45.1795C29.756 45.1795 27.3812 49.8286 23.4679 46.7849C22.5759 46.0814 22.0296 45.1895 21.8066 44.1983C29.0536 36.8177 41.4626 38.2002 48.0741 44.1983Z" fill="white"/>
        <path d="M43.3702 49.0894C41.9141 49.0894 40.6766 48.416 39.4803 47.7638C38.1558 47.0424 36.7866 46.2954 34.9437 46.2954C33.0416 46.2954 31.5465 47.0145 30.1016 47.7091C28.7916 48.339 27.5551 48.9344 26.1459 48.9344C24.9808 48.9344 23.8804 48.5208 22.7844 47.6701C20.6928 46.0457 20.0295 43.3621 21.0139 40.4902C22.5101 36.1242 27.8874 31.4829 34.9069 31.4829C42.4972 31.4829 47.4943 36.0417 48.9259 40.2783C49.9248 43.2384 49.2135 46.0044 47.0216 47.6757C45.7729 48.6267 44.5788 49.0894 43.3702 49.0894ZM34.9437 44.0645C37.3553 44.0645 39.1257 45.0289 40.5484 45.806C41.5863 46.3712 42.4827 46.8596 43.3702 46.8596C44.0815 46.8596 44.8129 46.5552 45.6703 45.9019C47.0862 44.8215 47.5032 43.0321 46.8142 40.9907C45.5923 37.374 41.1103 33.7127 34.908 33.7127C28.9231 33.7127 24.3698 37.5769 23.1245 41.2137C22.7309 42.3632 22.3407 44.5016 24.1535 45.9086C24.8526 46.4515 25.487 46.7046 26.1481 46.7046C27.049 46.7046 28.0167 46.2397 29.1372 45.7012C30.649 44.9698 32.5321 44.0645 34.9437 44.0645Z" fill="black"/>
        <path d="M48.0785 45.0367C47.8778 45.0367 47.6771 44.9654 47.5177 44.8205C41.2229 39.1177 29.3602 37.6996 22.4053 44.787C22.0831 45.1159 21.5535 45.1226 21.2224 44.7982C20.8924 44.4748 20.8879 43.9453 21.2113 43.6153C28.8306 35.8533 41.7826 37.3674 48.6404 43.5818C48.9827 43.8918 49.0095 44.4202 48.6984 44.7636C48.5334 44.9442 48.306 45.0367 48.0785 45.0367Z" fill="black"/>
        <path d="M12.9799 27.5586C12.04 27.9566 11.3811 28.8864 11.3811 29.9712C11.3811 31.4195 12.554 32.5924 14.0012 32.5924C15.3959 32.5924 16.5264 31.5009 16.6067 30.1251L12.9799 27.5586Z" fill="black"/>
        <path d="M56.6009 27.5586C57.5408 27.9566 58.1997 28.8864 58.1997 29.9712C58.1997 31.4195 57.0268 32.5924 55.5797 32.5924C54.1849 32.5924 53.0544 31.5009 52.9741 30.1251L56.6009 27.5586Z" fill="black"/>
    </symbol>
    <symbol id="fatigued" xmlns="http://www.w3.org/2000/svg" width="70" height="71" viewBox="0 0 70 71" fill="none">
        <path d="M68.0052 41.7908C67.4924 44.3886 66.6785 46.8749 65.597 49.2162C64.4709 49.573 63.1664 49.6734 61.8174 49.4504C58.1938 48.8483 55.6183 46.1056 56.0866 43.3406C56.5437 40.5755 59.8551 38.8251 63.4898 39.4271C65.374 39.7404 66.9672 40.6313 68.0052 41.7908Z" fill="#FF9A61"/>
        <path d="M13.2732 43.3418C13.7415 46.1069 11.166 48.8496 7.54247 49.4517C6.29374 49.6635 5.08962 49.5855 4.01928 49.2956C2.8932 46.8762 2.057 44.3007 1.54413 41.6026C2.56987 40.5322 4.09732 39.7295 5.87007 39.4284C9.50475 38.8253 12.8161 40.5768 13.2732 43.3418Z" fill="#FF9A61"/>
        <path d="M68.6743 35.1128C68.6743 37.3984 68.4513 39.6395 68.0053 41.7913C66.9685 40.6317 65.3741 39.7398 63.4899 39.4276C59.8552 38.8255 56.5438 40.576 56.0867 43.341C55.6184 46.1061 58.1939 48.8488 61.8175 49.4509C63.1665 49.6739 64.471 49.5735 65.5971 49.2167C60.2577 60.8901 48.4717 68.9957 34.7915 68.9957C21.1335 68.9957 9.37098 60.9235 4.0193 49.2948C5.08963 49.5847 6.29376 49.6627 7.54248 49.4509C11.166 48.8488 13.7415 46.1061 13.2732 43.341C12.8161 40.576 9.50477 38.8255 5.87008 39.4276C4.09734 39.7286 2.56988 40.5314 1.54414 41.6017C1.12047 39.5056 0.90863 37.3315 0.90863 35.1128C0.90863 16.3931 16.0717 1.22998 34.7915 1.22998C53.5112 1.2311 68.6743 16.3931 68.6743 35.1128Z" fill="#FCE7F6"/>
        <path d="M35 70.1118C15.7005 70.1118 0 54.4102 0 35.1118C0 15.8123 15.7005 0.111816 35 0.111816C54.2984 0.111816 70 15.8123 70 35.1118C70 54.4113 54.2995 70.1118 35 70.1118ZM35 2.34168C16.9303 2.34168 2.22987 17.0421 2.22987 35.1118C2.22987 53.1816 16.9303 67.882 35 67.882C53.0697 67.882 67.7701 53.1816 67.7701 35.1118C67.7701 17.0421 53.0697 2.34168 35 2.34168Z" fill="#FF9A61"/>
        <path d="M17.141 34.8845C14.8866 34.8845 13.0526 32.9501 13.0526 30.573C13.0526 30.1114 13.4272 29.7368 13.8888 29.7368C14.3503 29.7368 14.725 30.1114 14.725 30.573C14.725 32.028 15.8087 33.2121 17.141 33.2121C18.4722 33.2121 19.556 32.028 19.556 30.573C19.556 30.1114 19.9306 29.7368 20.3922 29.7368C20.8537 29.7368 21.2284 30.1114 21.2284 30.573C21.2284 32.9501 19.3943 34.8845 17.141 34.8845Z" fill="black"/>
        <path d="M52.654 34.8845C50.3996 34.8845 48.5656 32.9501 48.5656 30.573C48.5656 30.1114 48.9402 29.7368 49.4018 29.7368C49.8633 29.7368 50.238 30.1114 50.238 30.573C50.238 32.028 51.3217 33.2121 52.654 33.2121C53.9853 33.2121 55.069 32.028 55.069 30.573C55.069 30.1114 55.4436 29.7368 55.9052 29.7368C56.3668 29.7368 56.7414 30.1114 56.7414 30.573C56.7414 32.9501 54.9073 34.8845 52.654 34.8845Z" fill="black"/>
        <path d="M43.3978 42.9532H26.395C25.9335 42.9532 25.5588 42.5785 25.5588 42.117C25.5588 41.6554 25.9335 41.2808 26.395 41.2808H43.3978C43.8594 41.2808 44.234 41.6554 44.234 42.117C44.234 42.5785 43.8594 42.9532 43.3978 42.9532Z" fill="black"/>
    </symbol>
    <symbol id="moody" xmlns="http://www.w3.org/2000/svg" width="70" height="71" viewBox="0 0 70 71" fill="none">
        <path d="M68.0043 41.7895C67.4904 44.3872 66.6776 46.8746 65.5961 49.2148C64.47 49.5716 63.1656 49.6719 61.8154 49.4501C58.192 48.8469 55.6165 46.1053 56.0848 43.3403C56.5419 40.5753 59.8532 38.8238 63.4878 39.427C65.3731 39.738 66.9663 40.6311 68.0043 41.7895Z" fill="#FF9A61"/>
        <path d="M13.2731 43.3404C13.7414 46.1054 11.1648 48.8469 7.54134 49.4501C6.29264 49.6608 5.08852 49.5828 4.01821 49.2929C2.89214 46.8735 2.05595 44.2981 1.54309 41.6C2.56881 40.5308 4.09625 39.7269 5.86897 39.427C9.5036 38.8239 12.816 40.5743 13.2731 43.3404Z" fill="#FF9A61"/>
        <path d="M68.6733 35.1111C68.6733 37.3978 68.4503 39.6388 68.0043 41.7895C66.9664 40.6311 65.3731 39.738 63.4878 39.427C59.8532 38.8238 56.5419 40.5742 56.0848 43.3403C55.6165 46.1053 58.192 48.8469 61.8155 49.4501C63.1656 49.6719 64.4701 49.5716 65.5961 49.2148C60.2557 60.8891 48.471 68.9957 34.7899 68.9957C21.1322 68.9957 9.37091 60.9237 4.0182 49.2929C5.08852 49.5827 6.29263 49.6608 7.54134 49.4501C11.1648 48.8469 13.7414 46.1053 13.2731 43.3403C12.816 40.5754 9.50359 38.8238 5.86896 39.427C4.09625 39.728 2.56881 40.5308 1.54309 41.6C1.11942 39.505 0.907593 37.3298 0.907593 35.1111C0.907593 16.3928 16.0716 1.22998 34.7899 1.22998C53.5104 1.22998 68.6733 16.3928 68.6733 35.1111Z" fill="#FCE7F6"/>
        <path d="M34.9994 70.1118C15.7002 70.1118 0 54.4115 0 35.1112C0 15.8121 15.7002 0.111816 34.9994 0.111816C54.2975 0.111816 70 15.8121 70 35.1112C69.9989 54.4115 54.2975 70.1118 34.9994 70.1118ZM34.9994 2.34165C16.93 2.34165 2.22983 17.0418 2.22983 35.1112C2.22983 53.1807 16.9289 67.882 34.9994 67.882C53.0689 67.882 67.7702 53.1807 67.7702 35.1112C67.7691 17.0418 53.0689 2.34165 34.9994 2.34165Z" fill="#FF9A61"/>
        <path d="M26.3945 42.95C26.021 42.95 25.681 42.6991 25.5851 42.3212C25.4714 41.873 25.7423 41.417 26.1894 41.3044L43.1918 36.9841C43.6344 36.8704 44.0949 37.1391 44.2075 37.5873C44.3223 38.0354 44.0503 38.4915 43.6032 38.6041L26.6008 42.9244C26.5328 42.9422 26.4625 42.95 26.3945 42.95Z" fill="black"/>
        <path d="M13.9977 33.5614C15.4448 33.5614 16.6178 32.3884 16.6178 30.9413C16.6178 29.4943 15.4448 28.3213 13.9977 28.3213C12.5507 28.3213 11.3777 29.4943 11.3777 30.9413C11.3777 32.3884 12.5507 33.5614 13.9977 33.5614Z" fill="black"/>
        <path d="M58.2042 30.9413C58.2042 32.3874 57.0302 33.5614 55.5841 33.5614C54.1369 33.5614 52.9641 32.3874 52.9641 30.9413C52.9641 29.4953 54.1369 28.3213 55.5841 28.3213C57.0302 28.3213 58.2042 29.4953 58.2042 30.9413Z" fill="black"/>
    </symbol>
    <symbol id="overwhelmed" xmlns="http://www.w3.org/2000/svg" width="70" height="71" viewBox="0 0 70 71" fill="none">
        <path d="M68.0054 41.8131C67.4925 44.4192 66.6797 46.9146 65.5971 49.2623C64.471 49.6202 63.1666 49.7209 61.8175 49.4983C58.194 48.8932 55.6185 46.1428 56.0867 43.3689C56.5439 40.595 59.8541 38.8379 63.4899 39.443C65.3742 39.7562 66.9685 40.651 68.0054 41.8131Z" fill="#FF9A61"/>
        <path d="M13.2733 43.3689C13.7416 46.1428 11.165 48.8932 7.54145 49.4983C6.29384 49.7097 5.0897 49.6314 4.01825 49.3406C2.89217 46.9134 2.05597 44.3297 1.54422 41.6229C2.56996 40.5503 4.0963 39.7439 5.86905 39.443C9.50484 38.8379 12.8162 40.595 13.2733 43.3689Z" fill="#FF9A61"/>
        <path d="M68.6733 35.1131C68.6733 37.4072 68.4514 39.6554 68.0043 41.813C66.9674 40.6509 65.3742 39.7549 63.4888 39.4429C59.853 38.8377 56.5439 40.5938 56.0857 43.3688C55.6174 46.1427 58.1929 48.8931 61.8164 49.4982C63.1655 49.7208 64.47 49.6201 65.5961 49.2622C60.2567 60.974 48.4718 69.1044 34.7904 69.1044C21.1325 69.1044 9.36994 61.0064 4.01714 49.3405C5.0886 49.6313 6.29273 49.7096 7.54034 49.4982C11.1639 48.8931 13.7394 46.1427 13.2722 43.3688C12.8151 40.5949 9.50374 38.8377 5.86794 39.4429C4.09519 39.7449 2.56885 40.5502 1.54311 41.6228C1.11832 39.5212 0.907593 37.339 0.907593 35.1131C0.907593 16.3346 16.0707 1.12305 34.7904 1.12305C53.5102 1.12305 68.6733 16.3346 68.6733 35.1131Z" fill="#FCE7F6"/>
        <path d="M35 70.2239C15.7005 70.2239 0 54.4732 0 35.1131C0 15.7518 15.7005 0 35 0C54.2995 0 70 15.7518 70 35.1131C70 54.4732 54.2995 70.2239 35 70.2239ZM35 2.23809C16.9303 2.23809 2.22987 16.9866 2.22987 35.1142C2.22987 53.2406 16.9303 67.988 35 67.988C53.0697 67.988 67.7701 53.2406 67.7701 35.1142C67.7701 16.9855 53.0697 2.23809 35 2.23809Z" fill="#FF9A61"/>
        <path d="M34.9688 36.7573C40.8032 36.7573 43.8648 42.2894 41.1087 44.3989C38.7094 46.2355 37.7717 43.5332 34.9878 43.5332C32.2049 43.5332 30.9294 46.0353 28.8288 44.3989C26.0894 42.2659 29.5324 36.7573 34.9688 36.7573Z" fill="black"/>
        <path d="M17.1399 34.8838C14.8866 34.8838 13.0526 32.9444 13.0526 30.5586C13.0526 30.0955 13.4272 29.7197 13.8888 29.7197C14.3503 29.7197 14.725 30.0955 14.725 30.5586C14.725 32.0194 15.8087 33.2061 17.1399 33.2061C18.4711 33.2061 19.5548 32.0194 19.5548 30.5586C19.5548 30.0955 19.9295 29.7197 20.391 29.7197C20.8526 29.7197 21.2272 30.0955 21.2272 30.5586C21.2272 32.9444 19.3943 34.8838 17.1399 34.8838Z" fill="black"/>
        <path d="M52.6528 34.8838C50.3984 34.8838 48.5654 32.9444 48.5654 30.5586C48.5654 30.0955 48.94 29.7197 49.4016 29.7197C49.8632 29.7197 50.2378 30.0955 50.2378 30.5586C50.2378 32.0194 51.3215 33.2061 52.6528 33.2061C53.984 33.2061 55.0677 32.0194 55.0677 30.5586C55.0677 30.0955 55.4423 29.7197 55.9039 29.7197C56.3655 29.7197 56.7401 30.0955 56.7401 30.5586C56.7401 32.9444 54.906 34.8838 52.6528 34.8838Z" fill="black"/>
        <path d="M56.225 45.8616C56.225 43.1705 55.2149 41.6538 54.5459 40.6517C54.0899 39.9671 53.9951 39.8251 53.9951 39.1707C53.9951 38.5142 54.0899 38.3721 54.5459 37.6876C55.2015 36.7044 56.1782 35.2213 56.2172 32.6309C55.5215 33.9652 54.1925 34.8835 52.6528 34.8835C51.3394 34.8835 50.1832 34.2136 49.4339 33.1924C49.3548 33.4004 49.2176 33.6084 48.9846 33.9585C48.3157 34.9618 47.3055 36.4785 47.3055 39.1707C47.3055 41.8619 48.3157 43.3785 48.9846 44.3807C49.4406 45.0652 49.5354 45.2073 49.5354 45.8616C49.5354 46.5182 49.4406 46.6602 48.9846 47.3447C48.3157 48.348 47.3055 49.8658 47.3055 52.5581C47.3055 55.2503 48.3146 56.7692 48.9835 57.7725C49.4406 58.4582 49.5354 58.6013 49.5354 59.259C49.5354 59.9167 49.4406 60.0599 48.9835 60.7455C48.3502 61.6974 47.4204 63.1245 47.3245 65.564C50.5678 64.2374 53.5525 62.4065 56.1826 60.165C56.2083 59.8787 56.225 59.5789 56.225 59.2601C56.225 56.5679 55.216 55.0501 54.547 54.0468C54.0899 53.3612 53.9951 53.218 53.9951 52.5592C53.9951 51.9026 54.0899 51.7595 54.547 51.0738C55.2149 50.0705 56.225 48.5538 56.225 45.8616Z" fill="#59B5C9"/>
        <path d="M13.5744 45.8616C13.5744 43.1705 14.5845 41.6538 15.2534 40.6517C15.7094 39.9671 15.8042 39.8251 15.8042 39.1707C15.8042 38.5142 15.7094 38.3721 15.2534 37.6876C14.5979 36.7044 13.6212 35.2213 13.5822 32.6309C14.2779 33.9652 15.6058 34.8835 17.1466 34.8835C18.46 34.8835 19.6162 34.2136 20.3654 33.1924C20.4446 33.4004 20.5817 33.6084 20.8147 33.9585C21.4837 34.9618 22.4938 36.4785 22.4938 39.1707C22.4938 41.8619 21.4837 43.3785 20.8147 44.3807C20.3587 45.0652 20.264 45.2073 20.264 45.8616C20.264 46.5182 20.3587 46.6602 20.8147 47.3447C21.4837 48.348 22.4938 49.8658 22.4938 52.5581C22.4938 55.2503 21.4848 56.7692 20.8159 57.7725C20.3587 58.4582 20.264 58.6013 20.264 59.259C20.264 59.9167 20.3587 60.0599 20.8159 60.7455C21.4491 61.6974 22.379 63.1245 22.4749 65.564C19.2315 64.2374 16.2469 62.4065 13.6167 60.165C13.5911 59.8787 13.5744 59.5789 13.5744 59.2601C13.5744 56.5679 14.5834 55.0501 15.2523 54.0468C15.7094 53.3612 15.8042 53.218 15.8042 52.5592C15.8042 51.9026 15.7094 51.7595 15.2523 51.0738C14.5845 50.0705 13.5744 48.5538 13.5744 45.8616Z" fill="#59B5C9"/>
    </symbol>
    <symbol id="emptyMoodState" xmlns="http://www.w3.org/2000/svg" width="201" height="128" viewBox="0 0 201 128" fill="none">
        <path d="M100.17 4.96902C72.9446 27.008 2.29005 20.2024 0.0213223 67.197C-2.24741 114.192 177.306 146.278 168.231 116.461C159.156 86.6431 198.049 86.6432 200.641 63.3077C203.234 39.9722 127.394 -17.0699 100.17 4.96902Z" fill="#EEFBFB"/>
        <path d="M133.005 70.6795C132.491 73.2772 131.679 75.7636 130.597 78.1049C129.471 78.4617 128.167 78.562 126.817 78.339C123.193 77.737 120.618 74.9942 121.086 72.2292C121.543 69.4642 124.854 67.7137 128.489 68.3158C130.373 68.628 131.967 69.5199 133.005 70.6795Z" fill="#FF9A61"/>
        <path d="M78.2742 72.2292C78.7425 74.9942 76.1659 77.737 72.5424 78.339C71.2937 78.5509 70.0896 78.4728 69.0193 78.183C67.8932 75.7635 67.0571 73.1881 66.5442 70.4899C67.5699 69.4196 69.0974 68.6168 70.8701 68.3158C74.5047 67.7137 77.8171 69.4642 78.2742 72.2292Z" fill="#FF9A61"/>
        <path d="M133.673 64.001C133.673 66.2866 133.45 68.5276 133.004 70.6795C131.966 69.5199 130.373 68.628 128.488 68.3158C124.853 67.7137 121.543 69.4642 121.085 72.2292C120.617 74.9942 123.192 77.737 126.815 78.339C128.166 78.562 129.47 78.4617 130.596 78.1049C125.256 89.7783 113.471 97.8839 99.7899 97.8839C86.1321 97.8839 74.3709 89.8117 69.0182 78.183C70.0885 78.4728 71.2926 78.5509 72.5413 78.339C76.1648 77.737 78.7414 74.9942 78.2731 72.2292C77.816 69.4642 74.5036 67.7137 70.8689 68.3158C69.0962 68.6168 67.5688 69.4196 66.5431 70.4899C66.1194 68.3938 65.9076 66.2197 65.9076 64.001C65.9076 45.2813 81.0715 30.1182 99.7899 30.1182C118.512 30.1182 133.673 45.2813 133.673 64.001Z" fill="#C5F2F2"/>
        <path d="M99.9994 99C80.7014 99 65 83.2984 65 64C65 44.7016 80.7014 29 99.9994 29C119.3 29 135 44.7005 135 64C135 83.2995 119.3 99 99.9994 99ZM99.9994 31.2299C81.93 31.2299 67.2298 45.9303 67.2298 64C67.2298 82.0697 81.93 96.7701 99.9994 96.7701C118.069 96.7701 132.77 82.0697 132.77 64C132.77 45.9303 118.069 31.2299 99.9994 31.2299Z" fill="#FF9A61"/>
        <path d="M81.7236 58.4824C81.7236 59.9296 80.5496 61.1025 79.1025 61.1025C77.6553 61.1025 76.4824 59.9296 76.4824 58.4824C76.4824 57.0363 77.6553 55.8623 79.1025 55.8623C80.5496 55.8623 81.7236 57.0352 81.7236 58.4824Z" fill="black"/>
        <path d="M123.309 58.4824C123.309 59.9296 122.136 61.1025 120.688 61.1025C119.242 61.1025 118.068 59.9296 118.068 58.4824C118.068 57.0363 119.242 55.8623 120.688 55.8623C122.136 55.8623 123.309 57.0352 123.309 58.4824Z" fill="black"/>
        <path d="M99.8959 74.6028C96.822 74.6028 94.3213 71.3695 94.3213 67.3948C94.3213 66.9332 94.6959 66.5586 95.1575 66.5586C95.6191 66.5586 95.9937 66.9332 95.9937 67.3948C95.9937 70.4475 97.7441 72.9304 99.8959 72.9304C102.049 72.9304 103.799 70.4464 103.799 67.3948C103.799 66.9332 104.174 66.5586 104.635 66.5586C105.097 66.5586 105.472 66.9332 105.472 67.3948C105.472 71.3695 102.97 74.6028 99.8959 74.6028Z" fill="black"/>
    </symbol>
</svg>