<svg width="81" height="80" viewBox="0 0 81 80" fill="none" xmlns="http://www.w3.org/2000/svg">
<path d="M77.5284 46.9498C76.9646 49.8121 76.0678 52.5515 74.875 55.1313C73.6343 55.5244 72.1971 55.6349 70.7119 55.3892C66.7195 54.7259 63.8805 51.7039 64.3965 48.6573C64.9001 45.6107 68.5498 43.6821 72.5545 44.3454C74.6306 44.6894 76.3872 45.6722 77.5284 46.9498Z" fill="#FF9A61"/>
<path d="M17.2259 48.6573C17.7418 51.7039 14.9054 54.7259 10.913 55.3892C9.53588 55.6226 8.20916 55.5367 7.0311 55.2173C5.79038 52.5515 4.86904 49.7138 4.30273 46.7409C5.43289 45.5616 7.11709 44.6771 9.0703 44.3454C13.075 43.6821 16.721 45.6107 17.2259 48.6573Z" fill="#FF9A61"/>
<path d="M78.2677 39.5915C78.2677 42.1098 78.0208 44.579 77.5282 46.9499C76.3858 45.6723 74.6303 44.6896 72.5543 44.3456C68.5496 43.6822 64.9011 45.6109 64.3962 48.6575C63.8803 51.704 66.7192 54.726 70.7116 55.3894C72.1968 55.6351 73.6341 55.5245 74.8748 55.1314C68.9918 67.9933 56.0073 76.9242 40.9344 76.9242C25.8861 76.9242 12.9249 68.0302 7.02961 55.2174C8.20768 55.5368 9.53439 55.6228 10.9115 55.3894C14.9039 54.726 17.7403 51.704 17.2244 48.6575C16.7207 45.6109 13.0735 43.6822 9.06882 44.3456C7.11561 44.6773 5.43145 45.5618 4.30129 46.7411C3.83571 44.4316 3.60107 42.0361 3.60107 39.5915C3.60107 18.9658 20.3078 2.25879 40.9344 2.25879C61.5586 2.25879 78.2677 18.9658 78.2677 39.5915Z" fill="#FCE7F6"/>
<path d="M40.5006 80C18.4444 80 0.5 62.0553 0.5 40C0.5 17.9447 18.4444 0 40.5006 0C62.5569 0 80.5 17.9447 80.5 40C80.5 62.0553 62.5556 80 40.5006 80ZM40.5006 2.54842C19.8498 2.54842 3.04838 19.3489 3.04838 40C3.04838 60.6511 19.8498 77.4516 40.5006 77.4516C61.1514 77.4516 77.9516 60.6511 77.9516 40C77.9516 19.3489 61.1514 2.54842 40.5006 2.54842Z" fill="#FF9A61"/>
<path d="M43.3522 37.0547C43.64 38.2237 43.7934 39.4439 43.7934 40.7259C43.7934 41.0137 43.7839 41.3004 43.772 41.587H43.7625C29.8864 39.8946 23.1481 41.587 23.1481 41.587H23.1386C23.1267 41.3004 23.1172 41.0137 23.1172 40.7259C23.1172 39.4439 23.2706 38.2237 23.5584 37.0547H43.3522Z" fill="white"/>
<path d="M33.4579 47.2393C36.4512 47.2393 39.0259 48.4797 40.2259 50.2957C38.4099 52.2139 36.0397 53.3723 33.4579 53.3723C30.8629 53.3723 28.5035 52.2139 26.6875 50.2957C27.8874 48.4797 30.4633 47.2393 33.4579 47.2393Z" fill="#FF7C5F"/>
<path d="M43.7636 41.5881H43.7731C43.5805 45.0643 42.2449 48.1528 40.2268 50.2959C39.0256 48.481 36.4521 47.2395 33.4588 47.2395C30.4643 47.2395 27.8884 48.4799 26.6884 50.2959C24.6703 48.1528 23.3371 45.0655 23.1421 41.5881H23.1516C23.1492 41.5881 29.8875 39.8958 43.7636 41.5881Z" fill="black"/>
<path d="M17.7002 36.0465C17.2078 36.0465 16.8082 35.6469 16.8082 35.1545C16.8082 33.6026 15.6523 32.3396 14.2323 32.3396C12.8124 32.3396 11.6564 33.6026 11.6564 35.1545C11.6564 35.6469 11.2568 36.0465 10.7645 36.0465C10.2721 36.0465 9.87256 35.6469 9.87256 35.1545C9.87256 32.619 11.8288 30.5557 14.2323 30.5557C16.637 30.5557 18.5921 32.619 18.5921 35.1545C18.5921 35.6469 18.1925 36.0465 17.7002 36.0465Z" fill="black"/>
<path d="M55.58 36.0465C55.0877 36.0465 54.6881 35.6469 54.6881 35.1545C54.6881 33.6026 53.5322 32.3396 52.1122 32.3396C50.6923 32.3396 49.5363 33.6026 49.5363 35.1545C49.5363 35.6469 49.1367 36.0465 48.6444 36.0465C48.152 36.0465 47.7524 35.6469 47.7524 35.1545C47.7524 32.619 49.7088 30.5557 52.1122 30.5557C54.5169 30.5557 56.472 32.619 56.472 35.1545C56.472 35.6469 56.0724 36.0465 55.58 36.0465Z" fill="black"/>
</svg>
