<svg width="125" height="124" viewBox="0 0 125 124" fill="none" xmlns="http://www.w3.org/2000/svg">
<path d="M146.888 24.3381C147.676 11.9178 139.234 1.27339 128.032 0.563021C116.83 -0.147343 107.111 9.34539 106.323 21.7656L104.76 46.4192L95.1338 24.2881C90.2842 13.1387 78.1424 8.57421 68.0143 14.093C57.8861 19.6119 53.607 33.1242 58.4566 44.2736L69.4106 69.4574L48.2916 54.2016C38.9418 47.4476 26.3206 50.4417 20.1014 60.8892C13.8823 71.3367 16.4202 85.2813 25.77 92.0353L44.329 105.442L22.0942 104.032C10.8926 103.321 1.17335 112.814 0.385708 125.234C-0.401934 137.655 8.04028 148.299 19.2419 149.009L41.4766 150.419L21.3728 161.374C11.2447 166.893 6.9656 180.405 11.8152 191.555C16.6648 202.704 28.8066 207.268 38.9347 201.75L61.8117 189.284L47.7641 212.882C41.5449 223.33 44.0828 237.274 53.4327 244.028C62.7825 250.782 75.4037 247.788 81.6228 237.341L93.9676 216.603L92.4041 241.257C91.6165 253.677 100.059 264.321 111.26 265.032C122.462 265.742 132.181 256.249 132.969 243.829L134.532 219.176L144.158 241.307C149.008 252.456 161.15 257.021 171.278 251.502C181.406 245.983 185.685 232.471 180.836 221.321L169.882 196.137L191.001 211.393C200.351 218.147 212.972 215.153 219.191 204.705C225.41 194.258 222.872 180.313 213.522 173.559L194.963 160.153L217.198 161.563C228.4 162.273 238.119 152.781 238.907 140.36C239.694 127.94 231.252 117.296 220.05 116.585L197.816 115.175L217.919 104.221C228.048 98.7019 232.327 85.1896 227.477 74.0402C222.628 62.8907 210.486 58.3262 200.358 63.8451L177.481 76.3108L191.528 52.7124C197.747 42.265 195.209 28.3204 185.86 21.5663C176.51 14.8123 163.889 17.8064 157.669 28.2539L145.325 48.9916L146.888 24.3381Z" fill="#FAA7E0"/>
</svg>
